<?xml version="1.0" ?><svg id="OBJECT" viewBox="0 0 512 512" xmlns="http://www.w3.org/2000/svg"><defs><style>.cls-1{fill:#bddbff;}.cls-2{fill:#3d9ae2;}.cls-3{fill:#fff;}</style></defs><title/><rect class="cls-1" height="110" rx="20" ry="20" width="497" x="7.5" y="364.5"/><path class="cls-2" d="M484.5,482H27.5A27.54,27.54,0,0,1,0,454.5v-70A27.54,27.54,0,0,1,27.5,357h457A27.54,27.54,0,0,1,512,384.5v70A27.54,27.54,0,0,1,484.5,482ZM27.5,372A12.52,12.52,0,0,0,15,384.5v70A12.52,12.52,0,0,0,27.5,467h457A12.52,12.52,0,0,0,497,454.5v-70A12.52,12.52,0,0,0,484.5,372Z"/><rect class="cls-3" height="30" width="50" x="56" y="474.5"/><path class="cls-2" d="M106,512H56a7.5,7.5,0,0,1-7.5-7.5v-30A7.5,7.5,0,0,1,56,467h50a7.5,7.5,0,0,1,7.5,7.5v30A7.5,7.5,0,0,1,106,512ZM63.5,497h35V482h-35Z"/><rect class="cls-3" height="30" width="50" x="406" y="474.5"/><path class="cls-2" d="M456,512H406a7.5,7.5,0,0,1-7.5-7.5v-30A7.5,7.5,0,0,1,406,467h50a7.5,7.5,0,0,1,7.5,7.5v30A7.5,7.5,0,0,1,456,512Zm-42.5-15h35V482h-35Z"/><rect class="cls-3" height="50" rx="10" ry="10" width="260" x="42.5" y="394.5"/><path class="cls-2" d="M292.5,452H52.5A17.52,17.52,0,0,1,35,434.5v-30A17.52,17.52,0,0,1,52.5,387h240A17.52,17.52,0,0,1,310,404.5v30A17.52,17.52,0,0,1,292.5,452Zm-240-50a2.5,2.5,0,0,0-2.5,2.5v30a2.5,2.5,0,0,0,2.5,2.5h240a2.5,2.5,0,0,0,2.5-2.5v-30a2.5,2.5,0,0,0-2.5-2.5Z"/><rect class="cls-3" height="40" rx="10" ry="10" width="40" x="434.5" y="399.5"/><path class="cls-2" d="M464.5,447h-20A17.52,17.52,0,0,1,427,429.5v-20A17.52,17.52,0,0,1,444.5,392h20A17.52,17.52,0,0,1,482,409.5v20A17.52,17.52,0,0,1,464.5,447Zm-20-40a2.5,2.5,0,0,0-2.5,2.5v20a2.5,2.5,0,0,0,2.5,2.5h20a2.5,2.5,0,0,0,2.5-2.5v-20a2.5,2.5,0,0,0-2.5-2.5Z"/><rect class="cls-3" height="40" rx="10" ry="10" width="40" x="364.5" y="399.5"/><path class="cls-2" d="M394.5,447h-20A17.52,17.52,0,0,1,357,429.5v-20A17.52,17.52,0,0,1,374.5,392h20A17.52,17.52,0,0,1,412,409.5v20A17.52,17.52,0,0,1,394.5,447Zm-20-40a2.5,2.5,0,0,0-2.5,2.5v20a2.5,2.5,0,0,0,2.5,2.5h20a2.5,2.5,0,0,0,2.5-2.5v-20a2.5,2.5,0,0,0-2.5-2.5Z"/><path class="cls-1" d="M81,364.5H41v-40a20,20,0,0,1,40,0Z"/><path class="cls-2" d="M81,372H41a7.5,7.5,0,0,1-7.5-7.5v-40a27.5,27.5,0,0,1,55,0v40A7.5,7.5,0,0,1,81,372ZM48.5,357h25V324.5a12.5,12.5,0,0,0-25,0Z"/><path class="cls-2" d="M61,312a7.5,7.5,0,0,1-7.5-7.5V84.5a7.5,7.5,0,0,1,15,0v220A7.5,7.5,0,0,1,61,312Z"/><path class="cls-2" d="M451,312a7.5,7.5,0,0,1-7.5-7.5V84.5a7.5,7.5,0,0,1,15,0v220A7.5,7.5,0,0,1,451,312Z"/><path class="cls-1" d="M471,364.5H431v-40a20,20,0,0,1,40,0Z"/><path class="cls-2" d="M471,372H431a7.5,7.5,0,0,1-7.5-7.5v-40a27.5,27.5,0,0,1,55,0v40A7.5,7.5,0,0,1,471,372Zm-32.5-15h25V324.5a12.5,12.5,0,0,0-25,0Z"/><path class="cls-2" d="M386,67a7.5,7.5,0,0,1-5.21-2.1C347.46,32.72,303.14,15,256,15S164.54,32.72,131.21,64.9a7.5,7.5,0,1,1-10.42-10.8C156.94,19.21,205,0,256,0s99.06,19.21,135.21,54.1A7.5,7.5,0,0,1,386,67Z"/><path class="cls-2" d="M336,101.45a7.5,7.5,0,0,1-5.63-2.54C310.6,76.47,284.19,64.12,256,64.12s-54.6,12.35-74.37,34.79A7.5,7.5,0,1,1,170.37,89C193,63.28,223.44,49.12,256,49.12S319,63.28,341.63,89A7.5,7.5,0,0,1,336,101.45Z"/><path class="cls-2" d="M306,136.23a7.5,7.5,0,0,1-5.63-2.54C288.56,120.28,272.8,112.9,256,112.9s-32.56,7.38-44.37,20.79a7.5,7.5,0,1,1-11.26-9.92C215.08,107.09,234.83,97.9,256,97.9s40.92,9.19,55.63,25.87A7.5,7.5,0,0,1,306,136.23Z"/><circle class="cls-1" cx="256" cy="167.5" r="20"/><path class="cls-2" d="M256,195a27.5,27.5,0,1,1,27.5-27.5A27.54,27.54,0,0,1,256,195Zm0-40a12.5,12.5,0,1,0,12.5,12.5A12.52,12.52,0,0,0,256,155Z"/></svg>